<svg width="64" height="64" viewBox="0 0 64 64" fill="none" xmlns="http://www.w3.org/2000/svg">
<path d="M30.0002 17V38.1841C30.0002 41.0778 29.1658 43.3332 27.4971 44.9503C25.8284 46.539 23.5941 47.3333 20.7941 47.3333C17.9658 47.3333 15.6749 46.5106 13.9214 44.8652C12.1961 43.2197 11.3335 40.9218 11.3335 37.9714H17.2729C17.3012 39.248 17.5981 40.2409 18.1638 40.9502C18.7577 41.6594 19.6062 42.014 20.7093 42.014C21.784 42.014 22.6042 41.6736 23.1699 40.9927C23.7355 40.3118 24.0183 39.3757 24.0183 38.1841V17H30.0002Z" fill="white"/>
<path d="M42.4237 47.3333C40.3399 47.3333 38.4558 46.9798 36.7716 46.2727C35.1159 45.5657 33.8028 44.5475 32.8322 43.2182C31.8616 41.8889 31.362 40.3192 31.3335 38.5091H37.7564C37.8421 39.7252 38.2703 40.6869 39.041 41.3939C39.8403 42.101 40.9251 42.4545 42.2953 42.4545C43.6941 42.4545 44.7931 42.1293 45.5924 41.4788C46.3917 40.8 46.7913 39.9232 46.7913 38.8485C46.7913 37.9717 46.5201 37.2505 45.9778 36.6848C45.4354 36.1192 44.7503 35.6808 43.9224 35.3697C43.1231 35.0303 42.0098 34.6626 40.5825 34.2667C38.6414 33.701 37.057 33.1495 35.8295 32.6121C34.6306 32.0465 33.5887 31.2121 32.7037 30.1091C31.8473 28.9778 31.4191 27.4788 31.4191 25.6121C31.4191 23.8586 31.8616 22.3313 32.7465 21.0303C33.6315 19.7293 34.8732 18.7394 36.4718 18.0606C38.0704 17.3535 39.8974 17 41.9527 17C45.0357 17 47.5335 17.7495 49.4461 19.2485C51.3873 20.7192 52.4578 22.7838 52.6576 25.4424H46.0634C46.0063 24.4242 45.5638 23.5899 44.736 22.9394C43.9367 22.2606 42.8662 21.9212 41.5245 21.9212C40.3541 21.9212 39.4121 22.2182 38.6984 22.8121C38.0133 23.4061 37.6708 24.2687 37.6708 25.4C37.6708 26.1919 37.9277 26.8566 38.4415 27.3939C38.9839 27.903 39.6405 28.3273 40.4112 28.6667C41.2105 28.9778 42.3238 29.3455 43.7512 29.7697C45.6923 30.3354 47.2766 30.901 48.5041 31.4667C49.7316 32.0323 50.7878 32.8808 51.6728 34.0121C52.5577 35.1434 53.0002 36.6283 53.0002 38.4667C53.0002 40.0505 52.5862 41.5212 51.7584 42.8788C50.9306 44.2364 49.7173 45.3253 48.1187 46.1455C46.5201 46.9374 44.6218 47.3333 42.4237 47.3333Z" fill="url(#paint0_linear_102_90)"/>
<path d="M58.8457 47.4993C59.3246 47.7759 59.9385 47.6123 60.1999 47.125C63.7017 40.5964 64.8345 33.0435 63.3851 25.7571C61.8706 18.1428 57.6395 11.3388 51.4804 6.61269C45.3212 1.8866 37.6539 -0.43924 29.9071 0.0685144C22.1603 0.576269 14.8622 3.88298 9.37258 9.37258C3.88299 14.8622 0.57627 22.1603 0.0685146 29.9071C-0.439241 37.6539 1.88659 45.3212 6.61269 51.4804C11.3388 57.6395 18.1428 61.8706 25.7571 63.3851C33.0435 64.8345 40.5964 63.7017 47.125 60.1999C47.6123 59.9385 47.7758 59.3246 47.4993 58.8457V58.8457C47.2228 58.3667 46.6111 58.2043 46.1232 58.4647C40.0158 61.7241 32.9577 62.7756 26.1478 61.421C19.01 60.0012 12.6318 56.035 8.20147 50.2613C3.77113 44.4875 1.59085 37.3001 2.06683 30.0381C2.54281 22.776 5.64259 15.9347 10.7886 10.7886C15.9347 5.64259 22.776 2.54281 30.0381 2.06683C37.3001 1.59085 44.4875 3.77114 50.2613 8.20147C56.035 12.6318 60.0012 19.01 61.421 26.1478C62.7756 32.9577 61.7241 40.0158 58.4647 46.1232C58.2043 46.6111 58.3667 47.2228 58.8457 47.4993V47.4993Z" fill="white"/>
<circle cx="54.1668" cy="53.4998" r="2.83333" fill="url(#paint1_radial_102_90)"/>
<defs>
<linearGradient id="paint0_linear_102_90" x1="52.2415" y1="25.1203" x2="31.4486" y2="38.7196" gradientUnits="userSpaceOnUse">
<stop stop-color="#3568D4"/>
<stop offset="1" stop-color="#3D7CFF"/>
</linearGradient>
<radialGradient id="paint1_radial_102_90" cx="0" cy="0" r="1" gradientUnits="userSpaceOnUse" gradientTransform="translate(54.1668 53.4998) rotate(90) scale(2.83333)">
<stop stop-color="#3D7CFF"/>
<stop offset="1" stop-color="#3568D4"/>
</radialGradient>
</defs>
</svg>
